<svg width="292" height="419" viewBox="0 0 292 419" fill="none" xmlns="http://www.w3.org/2000/svg">
<path d="M105 91.1322C105 91.1322 117 90.1322 124.5 93.6322C132 97.1322 139 102.632 139 102.632" stroke="black" stroke-width="6" stroke-linecap="round"/>
<path d="M105 105.102C105 105.102 130 103.602 131 112.102C132 120.602 111.5 134.102 111.5 134.102M118 105.5C118 105.5 114.5 110.5 116.5 117C118.5 123.5 122.5 125 122.5 125" stroke="black" stroke-width="6" stroke-linecap="round"/>
<path d="M186 139.111C186 139.111 267.5 138.785 267.5 139.111C267.5 139.386 267.5 160.626 267.5 169.007C267.5 171.072 266.918 173.052 264.979 173.762C260.588 175.37 251.513 177.07 246 181.111C243.326 183.07 240.733 185.866 238.398 188.85C231.364 197.838 221.276 204.611 209.862 204.611H188" stroke="black" stroke-width="6"/>
<path d="M142 326H91.564C83.576 326 76.9863 319.765 77.0004 311.777C77.008 307.538 79.2285 303.632 82.7306 301.244L99.2217 290L124.307 273.536C125.863 272.514 127.518 271.656 129.049 270.597C136.726 265.288 150.5 251.5 150.5 251.5M150.5 251.5C150.5 251.5 128.5 234 122.5 231.5C116.5 229 97 231.5 90.5 231.5C84 231.5 81 225 81 222C81 219 84.5 212 83.5 208C82.5 204 78 203.5 77.5 199.5C77 195.5 80 195 80 193C80 191 77.5 189 77.5 186C77.5 183 82 178.5 80 173.5C78 168.5 69 168 69 158.5C69 149 92 113.5 92 109C92 104.5 94 91 92 84C90 77 90 58 100 46C110 34 119.5 30 129.5 26C139.5 22 166 17 166 17M150.5 251.5C150.5 251.5 177.5 226.5 187.5 205C197.5 183.5 190 146 187.5 139C185 132 175 127 184.5 100.5C189.716 85.9502 199.906 74.8672 208.036 67.8301C215.131 61.6881 225.209 61.0336 232.832 66.5082C238.63 70.6724 245.324 76.6241 250.5 84.5C262 102 260 138 260 138M260 173.5V175.5C260 182 268 184.5 272.5 190.5C277 196.5 279 200 278.5 203C278 206 277.5 209 272.5 210C267.5 211 263.5 210.5 262.5 212.5C261.5 214.5 263.5 217.5 266.5 223.5C269.5 229.5 264.5 230 261.5 232C258.5 234 266.5 237 266.5 239.5C266.5 242 261.5 245.5 261.5 250C261.5 254.5 264 257.5 264 262C264 266.5 264 276.5 252 276.5C240 276.5 240 274 228 274C219.075 274 210.76 279.689 205.904 283.814C203.503 285.854 204.027 289.493 206.74 291.095L235.415 308.036L260.5 324.5L282.42 339.446C282.471 339.48 282.5 339.503 282.508 339.563C282.544 339.842 282.5 340.184 282.5 340.464V401C282.5 403.761 280.261 406 277.5 406H202" stroke="black" stroke-width="6"/>
<mask id="path-5-inside-1_70_2" fill="white">
<rect x="153" y="323" width="33" height="86" rx="1"/>
</mask>
<rect x="153" y="323" width="33" height="86" rx="1" fill="black" stroke="black" stroke-width="12" mask="url(#path-5-inside-1_70_2)"/>
<rect x="190.792" y="323" width="15.2083" height="6" rx="1" fill="black"/>
<rect x="133" y="323" width="15.2083" height="6" rx="1" fill="black"/>
<rect x="190.792" y="339" width="15.2083" height="6" rx="1" fill="black"/>
<rect x="133" y="339" width="15.2083" height="6" rx="1" fill="black"/>
<rect x="190.792" y="355" width="15.2083" height="6" rx="1" fill="black"/>
<rect x="133" y="355" width="15.2083" height="6" rx="1" fill="black"/>
<rect x="190.792" y="371" width="15.2083" height="6" rx="1" fill="black"/>
<rect x="133" y="371" width="15.2083" height="6" rx="1" fill="black"/>
<rect x="190.792" y="387" width="15.2083" height="6" rx="1" fill="black"/>
<rect x="133" y="387" width="15.2083" height="6" rx="1" fill="black"/>
<rect x="191" y="403" width="15.2083" height="6" rx="1" fill="black"/>
<rect x="133" y="403" width="15" height="6" rx="1" fill="black"/>
<path d="M42.4375 353L38.3437 353L38.3437 339.656L31.1406 352.328C30.9635 352.651 30.7135 352.896 30.3906 353.063C30.0781 353.229 29.7396 353.313 29.375 353.313C29.0208 353.313 28.6875 353.229 28.375 353.063C28.0729 352.896 27.8333 352.651 27.6562 352.328L20.4219 339.656L20.4219 353L16.3594 353L16.3594 332.328C16.3594 331.859 16.4948 331.443 16.7656 331.078C17.0469 330.714 17.4115 330.469 17.8594 330.344C18.0781 330.292 18.2969 330.276 18.5156 330.297C18.7344 330.307 18.9427 330.354 19.1406 330.438C19.349 330.51 19.5365 330.62 19.7031 330.766C19.8698 330.901 20.0104 331.068 20.125 331.266L29.375 347.344L38.625 331.266C38.8646 330.87 39.1927 330.589 39.6094 330.422C40.0365 330.255 40.4792 330.229 40.9375 330.344C41.375 330.469 41.7344 330.714 42.0156 331.078C42.2969 331.443 42.4375 331.859 42.4375 332.328L42.4375 353ZM67.0056 341.703C67.0056 342.266 66.9067 342.875 66.7087 343.531C66.5108 344.177 66.1879 344.781 65.74 345.344C65.3025 345.896 64.7244 346.359 64.0056 346.734C63.2973 347.109 62.4327 347.297 61.4119 347.297L54.0837 347.297L54.0837 343.438L61.4119 343.438C61.964 343.438 62.391 343.271 62.6931 342.938C62.9952 342.594 63.1462 342.172 63.1462 341.672C63.1462 341.141 62.9744 340.724 62.6306 340.422C62.2973 340.12 61.891 339.969 61.4119 339.969L54.0837 339.969C53.5317 339.969 53.1046 340.141 52.8025 340.484C52.5004 340.818 52.3494 341.234 52.3494 341.734L52.3494 347.406C52.3494 347.948 52.516 348.37 52.8494 348.672C53.1931 348.974 53.615 349.125 54.115 349.125L61.4119 349.125L61.4119 353L54.0837 353C53.5212 353 52.9119 352.901 52.2556 352.703C51.6098 352.505 51.0056 352.188 50.4431 351.75C49.891 351.302 49.4275 350.724 49.0525 350.016C48.6775 349.297 48.49 348.427 48.49 347.406L48.49 341.703C48.49 341.141 48.589 340.536 48.7869 339.891C48.9848 339.234 49.3025 338.63 49.74 338.078C50.1879 337.516 50.766 337.047 51.4744 336.672C52.1931 336.297 53.0629 336.109 54.0838 336.109L61.4119 336.109C61.9744 336.109 62.5785 336.208 63.2244 336.406C63.8806 336.604 64.4848 336.927 65.0369 337.375C65.5994 337.813 66.0681 338.391 66.4431 339.109C66.8181 339.818 67.0056 340.682 67.0056 341.703ZM87.3394 340.172L80.2456 340.172L80.2456 353L76.1362 353L76.1362 340.172L70.855 340.172L70.855 336.109L76.1362 336.109L76.1362 330.594L80.2456 330.594L80.2456 336.109L87.3394 336.109L87.3394 340.172ZM108.72 347.406C108.72 347.969 108.621 348.578 108.423 349.234C108.225 349.88 107.902 350.484 107.454 351.047C107.017 351.599 106.439 352.063 105.72 352.438C105.012 352.813 104.147 353 103.126 353L95.7981 353C95.2356 353 94.6262 352.901 93.97 352.703C93.3242 352.505 92.72 352.188 92.1575 351.75C91.6054 351.302 91.1419 350.724 90.7669 350.016C90.3919 349.297 90.2044 348.427 90.2044 347.406C90.2044 346.844 90.3033 346.234 90.5012 345.578C90.6992 344.922 91.0169 344.318 91.4544 343.766C91.9023 343.203 92.4804 342.734 93.1887 342.359C93.9075 341.984 94.7773 341.797 95.7981 341.797L103.126 341.797L103.126 345.672L95.7981 345.672C95.246 345.672 94.819 345.844 94.5169 346.188C94.2148 346.521 94.0637 346.938 94.0637 347.438C94.0637 347.969 94.2356 348.385 94.5794 348.688C94.9335 348.979 95.3502 349.125 95.8294 349.125L103.126 349.125C103.678 349.125 104.105 348.958 104.407 348.625C104.71 348.292 104.861 347.875 104.861 347.375L104.861 341.703C104.861 341.172 104.694 340.75 104.361 340.438C104.038 340.125 103.626 339.969 103.126 339.969L94.2044 339.969L94.2044 336.109L103.126 336.109C103.689 336.109 104.293 336.208 104.939 336.406C105.595 336.604 106.199 336.927 106.751 337.375C107.314 337.813 107.782 338.391 108.157 339.109C108.532 339.818 108.72 340.682 108.72 341.703L108.72 347.406ZM38.75 366.125C38.75 367.052 38.6354 367.88 38.4062 368.609C38.1771 369.339 37.8646 369.984 37.4687 370.547C37.0833 371.099 36.6354 371.573 36.125 371.969C35.6146 372.365 35.0781 372.693 34.5156 372.953C33.9635 373.203 33.401 373.385 32.8281 373.5C32.2656 373.615 31.7344 373.672 31.2344 373.672L39.7187 381L33.4375 381L24.9687 373.672L22.0469 373.672L22.0469 369.609L31.2344 369.609C31.7448 369.568 32.2083 369.464 32.625 369.297C33.0521 369.12 33.4167 368.885 33.7187 368.594C34.0312 368.302 34.2708 367.953 34.4375 367.547C34.6042 367.13 34.6875 366.656 34.6875 366.125L34.6875 363.563C34.6875 363.333 34.6562 363.161 34.5937 363.047C34.5417 362.922 34.4687 362.833 34.375 362.781C34.2917 362.719 34.1979 362.682 34.0937 362.672C34 362.661 33.9115 362.656 33.8281 362.656L20.4219 362.656L20.4219 381L16.3594 381L16.3594 360.641C16.3594 360.359 16.4115 360.094 16.5156 359.844C16.6198 359.594 16.7604 359.375 16.9375 359.188C17.125 359 17.3437 358.854 17.5937 358.75C17.8437 358.646 18.1146 358.594 18.4062 358.594L33.8281 358.594C34.7344 358.594 35.5 358.76 36.125 359.094C36.75 359.417 37.2552 359.828 37.6406 360.328C38.0365 360.818 38.3177 361.349 38.4844 361.922C38.6615 362.495 38.75 363.031 38.75 363.531L38.75 366.125ZM62.8025 375.297C62.8025 375.995 62.7139 376.625 62.5369 377.188C62.3598 377.74 62.1254 378.229 61.8337 378.656C61.5421 379.073 61.2035 379.432 60.8181 379.734C60.4327 380.026 60.0264 380.266 59.5994 380.453C59.1827 380.641 58.7556 380.781 58.3181 380.875C57.891 380.958 57.4848 381 57.0994 381L49.7712 381C49.2087 381 48.5942 380.901 47.9275 380.703C47.2608 380.505 46.641 380.182 46.0681 379.734C45.5056 379.276 45.0317 378.688 44.6462 377.969C44.2712 377.24 44.0837 376.349 44.0837 375.297L44.0837 369.797C44.0837 368.755 44.2712 367.875 44.6462 367.156C45.0317 366.427 45.5056 365.839 46.0681 365.391C46.641 364.932 47.2608 364.604 47.9275 364.406C48.5942 364.208 49.2087 364.109 49.7712 364.109L57.0994 364.109C58.141 364.109 59.0265 364.297 59.7556 364.672C60.4848 365.047 61.0733 365.521 61.5212 366.094C61.9692 366.656 62.2921 367.271 62.49 367.938C62.6983 368.604 62.8025 369.224 62.8025 369.797L62.8025 375.297ZM58.74 369.828C58.74 369.266 58.5994 368.849 58.3181 368.578C58.0369 368.307 57.6306 368.172 57.0994 368.172L49.8025 368.172C49.2608 368.172 48.8494 368.313 48.5681 368.594C48.2869 368.865 48.1462 369.266 48.1462 369.797L48.1462 375.297C48.1462 375.828 48.2869 376.234 48.5681 376.516C48.8494 376.797 49.2608 376.938 49.8025 376.938L57.0994 376.938C57.6514 376.938 58.0629 376.797 58.3337 376.516C58.6046 376.234 58.74 375.828 58.74 375.297L58.74 369.828ZM87.1362 375.297C87.1362 375.682 87.0894 376.089 86.9956 376.516C86.9123 376.943 86.7769 377.37 86.5894 377.797C86.4019 378.214 86.1571 378.615 85.855 379C85.5633 379.385 85.2039 379.729 84.7769 380.031C84.3602 380.323 83.8758 380.557 83.3237 380.734C82.7717 380.911 82.1467 381 81.4487 381L74.1206 381C73.7352 381 73.3289 380.958 72.9019 380.875C72.4748 380.781 72.0477 380.641 71.6206 380.453C71.2039 380.266 70.8029 380.026 70.4175 379.734C70.0321 379.432 69.6883 379.073 69.3862 378.656C69.0946 378.229 68.8602 377.74 68.6831 377.188C68.506 376.625 68.4175 375.995 68.4175 375.297L68.4175 356.969L72.48 356.969L72.48 375.297C72.48 375.797 72.6362 376.198 72.9487 376.5C73.2612 376.792 73.6519 376.938 74.1206 376.938L81.4487 376.938C81.9592 376.938 82.355 376.786 82.6362 376.484C82.9279 376.182 83.0737 375.786 83.0737 375.297L83.0737 369.797C83.0737 369.286 82.9227 368.891 82.6206 368.609C82.3185 368.318 81.9279 368.172 81.4487 368.172L74.1206 368.172L74.1206 364.109L81.4487 364.109C81.8342 364.109 82.2404 364.156 82.6675 364.25C83.0946 364.333 83.5165 364.469 83.9331 364.656C84.3602 364.844 84.7665 365.089 85.1519 365.391C85.5373 365.682 85.8758 366.042 86.1675 366.469C86.4592 366.885 86.6935 367.37 86.8706 367.922C87.0477 368.474 87.1362 369.099 87.1362 369.797L87.1362 375.297ZM111.22 375.297C111.22 375.995 111.131 376.625 110.954 377.188C110.777 377.74 110.543 378.229 110.251 378.656C109.96 379.073 109.621 379.432 109.236 379.734C108.85 380.026 108.444 380.266 108.017 380.453C107.6 380.641 107.173 380.781 106.736 380.875C106.309 380.958 105.902 381 105.517 381L98.1887 381C97.6262 381 97.0117 380.901 96.345 380.703C95.6783 380.505 95.0585 380.182 94.4856 379.734C93.9231 379.276 93.4492 378.688 93.0637 377.969C92.6887 377.24 92.5012 376.349 92.5012 375.297L92.5012 369.797C92.5012 368.755 92.6887 367.875 93.0637 367.156C93.4492 366.427 93.9231 365.839 94.4856 365.391C95.0585 364.932 95.6783 364.604 96.345 364.406C97.0117 364.208 97.6262 364.109 98.1887 364.109L105.517 364.109C106.559 364.109 107.444 364.297 108.173 364.672C108.902 365.047 109.491 365.521 109.939 366.094C110.387 366.656 110.71 367.271 110.907 367.938C111.116 368.604 111.22 369.224 111.22 369.797L111.22 375.297ZM107.157 369.828C107.157 369.266 107.017 368.849 106.736 368.578C106.454 368.307 106.048 368.172 105.517 368.172L98.22 368.172C97.6783 368.172 97.2669 368.313 96.9856 368.594C96.7044 368.865 96.5637 369.266 96.5637 369.797L96.5637 375.297C96.5637 375.828 96.7044 376.234 96.9856 376.516C97.2669 376.797 97.6783 376.938 98.22 376.938L105.517 376.938C106.069 376.938 106.48 376.797 106.751 376.516C107.022 376.234 107.157 375.828 107.157 375.297L107.157 369.828ZM36.9375 409L18.4062 409C18.1146 409 17.8437 408.948 17.5937 408.844C17.3437 408.74 17.125 408.599 16.9375 408.422C16.7604 408.234 16.6198 408.016 16.5156 407.766C16.4114 407.516 16.3594 407.245 16.3594 406.953L16.3594 386.594L20.4219 386.594L20.4219 404.938L36.9375 404.938L36.9375 409ZM59.8806 397.703C59.8806 398.266 59.7817 398.875 59.5837 399.531C59.3858 400.177 59.0629 400.781 58.615 401.344C58.1775 401.896 57.5994 402.359 56.8806 402.734C56.1723 403.109 55.3077 403.297 54.2869 403.297L46.9587 403.297L46.9587 399.438L54.2869 399.438C54.8389 399.438 55.266 399.271 55.5681 398.938C55.8702 398.594 56.0212 398.172 56.0212 397.672C56.0212 397.141 55.8494 396.724 55.5056 396.422C55.1723 396.12 54.766 395.969 54.2869 395.969L46.9587 395.969C46.4067 395.969 45.9796 396.141 45.6775 396.484C45.3754 396.818 45.2244 397.234 45.2244 397.734L45.2244 403.406C45.2244 403.948 45.391 404.37 45.7244 404.672C46.0681 404.974 46.49 405.125 46.99 405.125L54.2869 405.125L54.2869 409L46.9587 409C46.3962 409 45.7869 408.901 45.1306 408.703C44.4848 408.505 43.8806 408.188 43.3181 407.75C42.766 407.302 42.3025 406.724 41.9275 406.016C41.5525 405.297 41.365 404.427 41.365 403.406L41.365 397.703C41.365 397.141 41.4639 396.536 41.6619 395.891C41.8598 395.234 42.1775 394.63 42.615 394.078C43.0629 393.516 43.641 393.047 44.3494 392.672C45.0681 392.297 45.9379 392.109 46.9587 392.109L54.2869 392.109C54.8494 392.109 55.4535 392.208 56.0994 392.406C56.7556 392.604 57.3598 392.927 57.9119 393.375C58.4744 393.813 58.9431 394.391 59.3181 395.109C59.6931 395.818 59.8806 396.682 59.8806 397.703ZM82.1675 403.406C82.1675 403.969 82.0685 404.578 81.8706 405.234C81.6727 405.88 81.3498 406.484 80.9019 407.047C80.4644 407.599 79.8862 408.063 79.1675 408.438C78.4592 408.813 77.5946 409 76.5737 409L69.2456 409C68.6831 409 68.0737 408.901 67.4175 408.703C66.7717 408.505 66.1675 408.188 65.605 407.75C65.0529 407.302 64.5894 406.724 64.2144 406.016C63.8394 405.297 63.6519 404.427 63.6519 403.406C63.6519 402.844 63.7508 402.234 63.9487 401.578C64.1467 400.922 64.4644 400.318 64.9019 399.766C65.3498 399.203 65.9279 398.734 66.6362 398.359C67.355 397.984 68.2248 397.797 69.2456 397.797L76.5737 397.797L76.5737 401.672L69.2456 401.672C68.6935 401.672 68.2664 401.844 67.9644 402.188C67.6623 402.521 67.5112 402.938 67.5112 403.438C67.5112 403.969 67.6831 404.385 68.0269 404.688C68.381 404.979 68.7977 405.125 69.2769 405.125L76.5737 405.125C77.1258 405.125 77.5529 404.958 77.855 404.625C78.1571 404.292 78.3081 403.875 78.3081 403.375L78.3081 397.703C78.3081 397.172 78.1414 396.75 77.8081 396.438C77.4852 396.125 77.0737 395.969 76.5737 395.969L67.6519 395.969L67.6519 392.109L76.5737 392.109C77.1362 392.109 77.7404 392.208 78.3862 392.406C79.0425 392.604 79.6467 392.927 80.1987 393.375C80.7612 393.813 81.23 394.391 81.605 395.109C81.98 395.818 82.1675 396.682 82.1675 397.703L82.1675 403.406ZM102.657 396.172L93.5169 396.172C92.9648 396.172 92.5481 396.313 92.2669 396.594C91.9856 396.865 91.845 397.266 91.845 397.797L91.845 409L87.7825 409L87.7825 397.797C87.7825 397.099 87.871 396.474 88.0481 395.922C88.2252 395.37 88.4596 394.885 88.7512 394.469C89.0533 394.042 89.3971 393.682 89.7825 393.391C90.1679 393.089 90.5689 392.844 90.9856 392.656C91.4127 392.469 91.8398 392.333 92.2669 392.25C92.7044 392.156 93.1106 392.109 93.4856 392.109L102.657 392.109L102.657 396.172ZM126.304 409L122.241 409L122.241 399.625C122.241 399.094 122.147 398.62 121.96 398.203C121.783 397.776 121.538 397.411 121.226 397.109C120.913 396.807 120.543 396.578 120.116 396.422C119.7 396.255 119.246 396.172 118.757 396.172L111.647 396.172L111.647 409L107.585 409L107.585 394.125C107.585 393.844 107.637 393.583 107.741 393.344C107.845 393.094 107.991 392.88 108.179 392.703C108.366 392.516 108.585 392.37 108.835 392.266C109.085 392.161 109.351 392.109 109.632 392.109L118.788 392.109C119.299 392.109 119.835 392.167 120.397 392.281C120.97 392.396 121.533 392.583 122.085 392.844C122.647 393.094 123.179 393.417 123.679 393.813C124.189 394.198 124.637 394.672 125.022 395.234C125.418 395.786 125.731 396.427 125.96 397.156C126.189 397.885 126.304 398.708 126.304 399.625L126.304 409Z" fill="black"/>
</svg>
